<svg width="23" height="23" viewBox="0 0 23 23" fill="none" xmlns="http://www.w3.org/2000/svg">
<g clip-path="url(#clip0_38_1184)">
<path d="M22.4885 11.7152C22.4885 10.7729 22.4137 10.0853 22.2517 9.37219H11.7192V13.6253H17.9015C17.7769 14.6822 17.1039 16.2739 15.6081 17.3435L15.5871 17.4859L18.9173 20.1215L19.148 20.1451C21.2669 18.1458 22.4885 15.2043 22.4885 11.7152Z" fill="#4285F4"/>
<path d="M11.7192 22.921C14.748 22.921 17.2907 21.9023 19.148 20.1451L15.6081 17.3435C14.6608 18.0184 13.3894 18.4896 11.7192 18.4896C8.75267 18.4896 6.23487 16.4904 5.33735 13.7272L5.20579 13.7386L1.74304 16.4764L1.69775 16.605C3.54247 20.3487 7.33167 22.921 11.7192 22.921Z" fill="#34A853"/>
<path d="M5.33737 13.7272C5.10055 13.0141 4.9635 12.25 4.9635 11.4605C4.9635 10.671 5.10055 9.90698 5.32491 9.1939L5.31864 9.04202L1.81249 6.26025L1.69778 6.316C0.93748 7.86955 0.501221 9.61413 0.501221 11.4605C0.501221 13.3069 0.93748 15.0514 1.69778 16.605L5.33737 13.7272Z" fill="#FBBC05"/>
<path d="M11.7192 4.43136C13.8256 4.43136 15.2466 5.36093 16.0568 6.13775L19.2227 2.97973C17.2783 1.13332 14.748 0 11.7192 0C7.33166 0 3.54247 2.57223 1.69775 6.31596L5.32489 9.19386C6.23487 6.43061 8.75267 4.43136 11.7192 4.43136Z" fill="#EB4335"/>
</g>
<defs>
<clipPath id="clip0_38_1184">
<rect width="22" height="23" fill="white" transform="translate(0.5)"/>
</clipPath>
</defs>
</svg>
