<svg width="135" height="73" viewBox="0 0 135 73" fill="none" xmlns="http://www.w3.org/2000/svg">
<path d="M33.0001 50.5C33.0001 50.5 17.1286 52.037 27.3113 45.7537C29.5213 44.377 37.7337 7.31274 63.6998 3.29075C84.4727 0.0731537 96.5023 24.1852 100 37.5C103.502 38.6508 75 37.6168 75 37.6168L33.0001 50.5Z" fill="black"/>
<path d="M33.0001 50.5C33.0001 50.5 17.1286 52.037 27.3113 45.7537C29.5213 44.377 37.7337 7.31274 63.6998 3.29075C84.4727 0.0731537 96.5023 24.1852 100 37.5C103.502 38.6508 75 37.6168 75 37.6168L33.0001 50.5Z" fill="url(#paint0_linear_1417_354)"/>
<path d="M1.05476 66.4149C-2.37925 64.9735 17.1253 52.1013 27.3068 45.8454C42.0515 37.5214 72.8653 28.4624 94.4997 34.5C116 40.5 125.5 60 125.5 67C125.5 74 96.5103 40.8264 73 42C59.7561 42.6611 47.4175 52.4469 29.1584 60.1596C10.8992 67.8722 5.34726 68.2165 1.05476 66.4149Z" fill="url(#paint1_linear_1417_354)"/>
<defs>
<linearGradient id="paint0_linear_1417_354" x1="68.9624" y1="3.03191" x2="66.0373" y2="69.968" gradientUnits="userSpaceOnUse">
<stop/>
<stop offset="1" stop-color="#222222"/>
</linearGradient>
<linearGradient id="paint1_linear_1417_354" x1="67.6089" y1="34.0024" x2="66.0372" y2="69.9681" gradientUnits="userSpaceOnUse">
<stop stop-color="#1D1D1D"/>
<stop offset="1" stop-color="#2C2C2C"/>
</linearGradient>
</defs>
</svg>
