<svg width="24" height="16" viewBox="0 0 24 16" fill="none" xmlns="http://www.w3.org/2000/svg">
<path fill-rule="evenodd" clip-rule="evenodd" d="M1.4999 8L1.15806 8.36489L0.768555 8L1.15806 7.63511L1.4999 8ZM22.4999 8L22.8417 8.36489L23.2312 8L22.8417 7.63511L22.4999 8ZM2.2497 8C2.39955 8.13058 2.58753 8.29134 2.80845 8.47426C3.42205 8.98232 4.28701 9.65912 5.29289 10.335C7.33149 11.7048 9.84725 13 11.9999 13C14.1525 13 16.6683 11.7048 18.7069 10.335C19.7128 9.65912 20.5777 8.98232 21.1913 8.47426C21.4123 8.29134 21.6002 8.13058 21.7501 8C21.6002 7.86942 21.4123 7.70866 21.1913 7.52574C20.5777 7.01768 19.7128 6.34088 18.7069 5.66502C16.6683 4.29524 14.1525 3 11.9999 3C9.84725 3 7.33149 4.29524 5.29289 5.66502C4.28701 6.34088 3.42205 7.01768 2.80845 7.52574C2.58753 7.70866 2.39955 7.86942 2.2497 8ZM4.73517 4.83498C6.78932 3.45476 9.52356 2 11.9999 2C14.4762 2 17.2105 3.45476 19.2646 4.83498C20.3051 5.53412 21.1972 6.23232 21.8291 6.75551C22.1453 7.01733 22.397 7.23589 22.5703 7.38959C22.657 7.46645 22.7241 7.52714 22.7699 7.56895L22.8224 7.61718L22.8363 7.63006L22.8401 7.63357L22.8417 7.63511C22.8417 7.63511 22.8417 7.63511 22.4999 8C22.8417 8.36489 22.8417 8.36489 22.8417 8.36489L22.8401 8.36643L22.8363 8.36994L22.8224 8.38282L22.7699 8.43105C22.7241 8.47286 22.657 8.53355 22.5703 8.61041C22.397 8.76411 22.1453 8.98267 21.8291 9.24449C21.1972 9.76768 20.3051 10.4659 19.2646 11.165C17.2105 12.5452 14.4762 14 11.9999 14C9.52356 14 6.78932 12.5452 4.73517 11.165C3.69467 10.4659 2.80256 9.76768 2.17069 9.24449C1.85449 8.98267 1.60276 8.76411 1.42945 8.61041C1.34278 8.53355 1.27568 8.47286 1.22988 8.43105L1.17735 8.38282L1.16347 8.36994L1.1597 8.36643L1.15806 8.36489C1.15806 8.36489 1.15806 8.36489 1.4999 8C1.15806 7.63511 1.15806 7.63511 1.15806 7.63511L1.1597 7.63357L1.16347 7.63006L1.17735 7.61718L1.22988 7.56895C1.27568 7.52714 1.34278 7.46645 1.42945 7.38959C1.60276 7.23589 1.85449 7.01733 2.17069 6.75551C2.80256 6.23232 3.69467 5.53412 4.73517 4.83498Z" fill="black"/>
<path fill-rule="evenodd" clip-rule="evenodd" d="M15.9999 8C15.9999 10.2091 14.209 12 11.9999 12C9.79075 12 7.99989 10.2091 7.99989 8C7.99989 5.79086 9.79075 4 11.9999 4C14.209 4 15.9999 5.79086 15.9999 8ZM11.9999 11C13.6567 11 14.9999 9.65685 14.9999 8C14.9999 6.34315 13.6567 5 11.9999 5C10.343 5 8.99989 6.34315 8.99989 8C8.99989 9.65685 10.343 11 11.9999 11Z" fill="black"/>
</svg>
