<svg width="20" height="16" viewBox="0 0 20 16" fill="none" xmlns="http://www.w3.org/2000/svg">
<path d="M1.79444 16C1.28333 16 0.856667 15.846 0.514445 15.538C0.171482 15.2293 0 14.845 0 14.385V3.615C0 3.155 0.171482 2.771 0.514445 2.463C0.856667 2.15433 1.28333 2 1.79444 2H5.08111L7.13667 0H12.8633L14.9189 2H18.2056C18.7167 2 19.1433 2.15433 19.4856 2.463C19.8285 2.771 20 3.155 20 3.615V14.385C20 14.845 19.8289 15.229 19.4867 15.537C19.1437 15.8457 18.7167 16 18.2056 16H1.79444ZM1.79444 15H18.2056C18.4048 15 18.5685 14.9423 18.6967 14.827C18.8248 14.7117 18.8889 14.5643 18.8889 14.385V3.615C18.8889 3.43567 18.8248 3.28833 18.6967 3.173C18.5685 3.05767 18.4048 3 18.2056 3H14.4311L12.3822 1H7.61778L5.56889 3H1.79444C1.59519 3 1.43148 3.05767 1.30333 3.173C1.17519 3.28833 1.11111 3.43567 1.11111 3.615V14.385C1.11111 14.5643 1.17519 14.7117 1.30333 14.827C1.43148 14.9423 1.59519 15 1.79444 15Z" fill="black"/>
<path fill-rule="evenodd" clip-rule="evenodd" d="M10 5.88889C8.28178 5.88889 6.88889 7.28178 6.88889 9C6.88889 10.7182 8.28178 12.1111 10 12.1111C11.7182 12.1111 13.1111 10.7182 13.1111 9C13.1111 7.28178 11.7182 5.88889 10 5.88889ZM6 9C6 6.79086 7.79086 5 10 5C12.2091 5 14 6.79086 14 9C14 11.2091 12.2091 13 10 13C7.79086 13 6 11.2091 6 9Z" fill="black"/>
</svg>
