<svg width="17" height="17" viewBox="0 0 17 17" fill="none" xmlns="http://www.w3.org/2000/svg">
<path fill-rule="evenodd" clip-rule="evenodd" d="M11.9393 1.35352C12.5251 0.767737 13.4749 0.767738 14.0607 1.35352L15.6464 2.93931C16.2322 3.5251 16.2322 4.47484 15.6464 5.06063L9.64645 11.0606C9.36514 11.3419 8.98361 11.5 8.58579 11.5H7C6.17157 11.5 5.5 10.8284 5.5 9.99997V8.41418C5.5 8.01636 5.65804 7.63483 5.93934 7.35352L11.9393 1.35352ZM13.3536 2.06063C13.1583 1.86537 12.8417 1.86537 12.6464 2.06063L11.8941 2.81297L14.187 5.10586L14.9393 4.35352C15.1346 4.15826 15.1346 3.84168 14.9393 3.64642L13.3536 2.06063ZM13.4799 5.81297L11.187 3.52008L6.64645 8.06063C6.55268 8.1544 6.5 8.28158 6.5 8.41418V9.99997C6.5 10.2761 6.72386 10.5 7 10.5H8.58579C8.7184 10.5 8.84557 10.4473 8.93934 10.3535L13.4799 5.81297ZM0.5 4.99997C0.5 4.17154 1.17157 3.49997 2 3.49997H7V4.49997H2C1.72386 4.49997 1.5 4.72383 1.5 4.99997V15C1.5 15.2761 1.72386 15.5 2 15.5H12.187C12.4631 15.5 12.687 15.2761 12.687 15V9.99997H13.687V15C13.687 15.8284 13.0154 16.5 12.187 16.5H2C1.17157 16.5 0.5 15.8284 0.5 15V4.99997Z" fill="white"/>
</svg>
