<svg width="20" height="16" viewBox="0 0 20 16" fill="none" xmlns="http://www.w3.org/2000/svg">
<path fill-rule="evenodd" clip-rule="evenodd" d="M1.96154 0C1.44131 0 0.942381 0.211751 0.574521 0.588672C0.206662 0.965592 0 1.47681 0 2.00985V13.9901C0 14.5232 0.206662 15.0344 0.574521 15.4113C0.942381 15.7882 1.44131 16 1.96154 16H18.0385C18.5587 16 19.0576 15.7882 19.4255 15.4113C19.7933 15.0344 20 14.5232 20 13.9901V2.00985C20 1.47681 19.7933 0.965592 19.4255 0.588672C19.0576 0.211752 18.5587 0 18.0385 0H1.96154ZM8.98068 6.23105L12.1923 9.52178L13.2116 8.47736C13.4616 8.22119 13.7584 8.01799 14.0851 7.87936C14.4117 7.74072 14.7618 7.66937 15.1154 7.66937C15.4689 7.66937 15.819 7.74072 16.1457 7.87936C16.4723 8.01799 16.7691 8.22119 17.0191 8.47736L19 10.507V2.00985C19 1.74856 18.8987 1.49796 18.7184 1.3132C18.538 1.12843 18.2935 1.02463 18.0385 1.02463H1.96154C1.70652 1.02463 1.46195 1.12843 1.28163 1.3132C1.1013 1.49796 1 1.74856 1 2.00985V10.507L5.17316 6.23105C5.42317 5.97489 5.71997 5.77169 6.04661 5.63305C6.37326 5.49442 6.72336 5.42306 7.07692 5.42306C7.43049 5.42306 7.78058 5.49442 8.10723 5.63305C8.43388 5.77169 8.73068 5.97489 8.98068 6.23105ZM12.1923 3.36946C11.9628 3.36946 11.7427 3.46288 11.5804 3.62917C11.4181 3.79546 11.3269 4.02099 11.3269 4.25616C11.3269 4.49132 11.4181 4.71686 11.5804 4.88315C11.7427 5.04944 11.9628 5.14286 12.1923 5.14286C12.4218 5.14286 12.6419 5.04944 12.8042 4.88315C12.9665 4.71686 13.0577 4.49132 13.0577 4.25616C13.0577 4.02099 12.9665 3.79546 12.8042 3.62917C12.6419 3.46288 12.4218 3.36946 12.1923 3.36946ZM1 11.9561V13.9901C1 14.2514 1.1013 14.502 1.28163 14.6868C1.46195 14.8716 1.70652 14.9754 1.96154 14.9754H18.0385C18.2935 14.9754 18.538 14.8716 18.7184 14.6868C18.8987 14.502 19 14.2514 19 13.9901V11.9561L16.312 9.20188C16.1549 9.04086 15.9683 8.91313 15.763 8.82599C15.5577 8.73885 15.3376 8.694 15.1154 8.694C14.8931 8.694 14.6731 8.73885 14.4678 8.82599C14.2624 8.91313 14.0759 9.04086 13.9187 9.20188L12.8994 10.2463L14.0074 11.3816C14.2027 11.5817 14.2027 11.906 14.0074 12.1061C13.8121 12.3062 13.4956 12.3062 13.3003 12.1061L8.27357 6.95557C8.11643 6.79456 7.92987 6.66683 7.72455 6.57969C7.51922 6.49254 7.29916 6.44769 7.07692 6.44769C6.85468 6.44769 6.63462 6.49254 6.4293 6.57969C6.22398 6.66683 6.03742 6.79455 5.88027 6.95557L1 11.9561Z" fill="black"/>
</svg>
